# xmcd
# 
# Track frame offsets:
#     150
#     16073
#     31911
#     49325
#     65341
#     81097
#     98426
#     119295
#     139111
#     156513
#     175553
#     194378
#     213008
#     228997
#     253506
# 
# Disc length: 4024
# 
# Revision: 4
# Processed by: cddbd v1.5.2PL0 Copyright (c) Steve Scherf et al.
# Submitted via: fre:ac v1.1beta1pre4
# 
DISCID=b90fb60f
DTITLE=Various Artist - Renegade Hardware Essential Rewindz [Disc 1]
DYEAR=2001
DGENRE=Drum and Bass
TTITLE0=Konflict - Messiah
TTITLE1=Kraken - Side Effects
TTITLE2=Krust - Warhead (Ram Trilogy Remix)
TTITLE3=Usual Suspects - Bodycount
TTITLE4=Dylan - Dominion
TTITLE5=Digital - Rock Steady
TTITLE6=Loxy and Ink - Pipe Tune
TTITLE7=Total Science - Out Of Touch
TTITLE8=Dom and Roland - Cant Punish Me
TTITLE9=EZ Rollers - Tuff At The Top (Origin Unknown Remix)
TTITLE10=Loxy - Caution
TTITLE11=Future Cut - Stealth (Domination)
TTITLE12=Ink - Ice Age
TTITLE13=DJ Reality - Tunnel Vision
TTITLE14=Sugizo - Replicant Deliverer (Peshay Remix)
EXTD=CD1
EXTT0=
EXTT1=
EXTT2=
EXTT3=
EXTT4=
EXTT5=
EXTT6=
EXTT7=
EXTT8=
EXTT9=
EXTT10=
EXTT11=
EXTT12=
EXTT13=
EXTT14=
PLAYORDER=
